<svg width="396" height="391" viewBox="0 0 396 391" fill="none" xmlns="http://www.w3.org/2000/svg">
<g filter="url(#filter0_d_138_2)">
<path d="M32.4107 83.8453C19.4977 89.8668 13.9404 105.238 20.0176 118.125L93.223 273.361C95.8113 278.85 101.073 282.593 107.108 283.237C111.423 283.698 115.754 282.528 119.252 279.959L124 276.47C135.525 268.002 139.47 252.577 133.426 239.616L66.5901 96.2856C60.587 83.412 45.2844 77.8423 32.4107 83.8453Z" fill="#3B2864"/>
<path d="M32.4107 83.8453C19.4977 89.8668 13.9404 105.238 20.0176 118.125L93.223 273.361C95.8113 278.85 101.073 282.593 107.108 283.237C111.423 283.698 115.754 282.528 119.252 279.959L124 276.47C135.525 268.002 139.47 252.577 133.426 239.616L66.5901 96.2856C60.587 83.412 45.2844 77.8423 32.4107 83.8453Z" fill="url(#paint0_linear_138_2)" fill-opacity="0.2"/>
</g>
<g filter="url(#filter1_d_138_2)">
<path d="M109.428 284.769C118.403 284.967 126.655 279.864 130.488 271.746L201.7 120.937C207.21 109.268 202.179 95.343 190.484 89.8892C178.82 84.4502 164.955 89.5044 159.528 101.174L89.2575 252.27C85.5738 260.191 86.7463 269.544 92.2454 276.332C96.4524 281.524 102.746 284.622 109.428 284.769Z" fill="#50328F"/>
<path d="M109.428 284.769C118.403 284.967 126.655 279.864 130.488 271.746L201.7 120.937C207.21 109.268 202.179 95.343 190.484 89.8892C178.82 84.4502 164.955 89.5044 159.528 101.174L89.2575 252.27C85.5738 260.191 86.7463 269.544 92.2454 276.332C96.4524 281.524 102.746 284.622 109.428 284.769Z" fill="url(#paint1_linear_138_2)" fill-opacity="0.2"/>
</g>
<g filter="url(#filter2_d_138_2)">
<path d="M255.057 286.533C245.856 286.786 237.388 281.574 233.45 273.233L160.501 118.749C154.844 106.768 159.983 92.4145 171.959 86.746C183.903 81.0927 198.113 86.2267 203.685 98.2089L275.671 252.994C279.456 261.132 278.261 270.77 272.625 277.781C268.324 283.133 261.891 286.345 255.057 286.533Z" fill="#684BA6"/>
<path d="M255.057 286.533C245.856 286.786 237.388 281.574 233.45 273.233L160.501 118.749C154.844 106.768 159.983 92.4145 171.959 86.746C183.903 81.0927 198.113 86.2267 203.685 98.2089L275.671 252.994C279.456 261.132 278.261 270.77 272.625 277.781C268.324 283.133 261.891 286.345 255.057 286.533Z" fill="url(#paint2_linear_138_2)" fill-opacity="0.2"/>
</g>
<g filter="url(#filter3_d_138_2)">
<path d="M373.572 10.1287C385.413 15.7334 390.508 29.9149 384.939 41.7731L275.109 275.651C269.793 286.972 256.519 292.034 245.018 287.127C232.845 281.933 227.373 267.633 232.967 255.635L342.166 21.4577C347.692 9.60691 361.753 4.53479 373.572 10.1287Z" fill="#9B80D3"/>
<path d="M373.572 10.1287C385.413 15.7334 390.508 29.9149 384.939 41.7731L275.109 275.651C269.793 286.972 256.519 292.034 245.018 287.127C232.845 281.933 227.373 267.633 232.967 255.635L342.166 21.4577C347.692 9.60691 361.753 4.53479 373.572 10.1287Z" fill="url(#paint3_linear_138_2)" fill-opacity="0.3"/>
<path d="M363.557 7.85279C366.275 7.85999 369.029 8.34066 371.699 9.33737L371.324 10.2419L372.245 10.6304C372.548 10.7581 372.849 10.893 373.149 11.035C373.45 11.1773 373.746 11.3254 374.037 11.479L374.922 11.9454L375.374 11.0768C377.845 12.5147 379.974 14.3478 381.716 16.4566L380.94 17.0488L381.545 17.8478C381.946 18.377 382.323 18.9224 382.675 19.4821L383.208 20.3309L384.034 19.8092C385.421 22.2365 386.375 24.8932 386.85 27.6485L385.881 27.7712L386.009 28.7655C386.094 29.4212 386.151 30.0816 386.178 30.745L386.22 31.7464L387.195 31.7093C387.193 34.4448 386.717 37.2133 385.726 39.8952L384.825 39.5125L384.439 40.4353C384.312 40.7392 384.178 41.0418 384.036 41.3429L383.62 42.2288L383.195 43.1339L384.098 43.5642L380.788 50.6129L379.885 50.1826L379.46 51.0878L378.628 52.8596L378.203 53.7647L379.106 54.195L375.795 61.2437L374.893 60.8135L374.468 61.7186L373.636 63.4904L373.211 64.3956L374.113 64.8258L370.803 71.8745L369.9 71.4443L369.475 72.3494L368.643 74.1212L368.218 75.0264L369.121 75.4566L365.811 82.5054L364.908 82.0751L364.483 82.9803L363.651 84.7521L363.226 85.6572L364.129 86.0875L360.819 93.1362L359.916 92.7059L359.491 93.6111L358.659 95.3829L358.234 96.288L359.136 96.7183L355.826 103.767L354.924 103.337L354.499 104.242L353.667 106.014L353.241 106.919L354.144 107.349L350.834 114.398L349.931 113.968L349.506 114.873L348.674 116.645L348.249 117.55L349.152 117.98L345.842 125.029L344.939 124.598L344.514 125.504L343.682 127.275L343.257 128.181L344.16 128.611L340.85 135.659L339.947 135.229L339.522 136.134L338.69 137.906L338.265 138.811L339.167 139.242L335.857 146.29L334.955 145.86L334.53 146.765L333.698 148.537L333.272 149.442L334.175 149.872L330.865 156.921L329.962 156.491L329.537 157.396L328.705 159.168L328.28 160.073L329.183 160.503L325.873 167.552L324.97 167.122L324.545 168.027L323.713 169.799L323.288 170.704L324.191 171.134L320.881 178.183L319.978 177.753L319.553 178.658L318.721 180.429L318.296 181.335L319.198 181.765L315.888 188.814L314.986 188.383L314.561 189.289L313.728 191.06L313.303 191.965L314.206 192.396L310.896 199.444L309.993 199.014L309.568 199.919L308.736 201.691L308.311 202.596L309.214 203.027L305.904 210.075L305.001 209.645L304.576 210.55L303.744 212.322L303.319 213.227L304.222 213.657L300.912 220.706L300.009 220.276L299.584 221.181L298.752 222.953L298.327 223.858L299.229 224.288L295.919 231.337L295.017 230.907L294.591 231.812L293.759 233.584L293.334 234.489L294.237 234.919L290.927 241.968L290.024 241.537L289.599 242.443L288.767 244.214L288.342 245.12L289.245 245.55L285.935 252.599L285.032 252.168L284.607 253.073L283.775 254.845L283.35 255.75L284.253 256.181L280.942 263.229L280.04 262.799L279.615 263.704L278.783 265.476L278.358 266.381L279.26 266.811L275.95 273.86L275.047 273.43L274.622 274.335L274.206 275.221C274.071 275.509 273.931 275.793 273.785 276.072L273.322 276.958L274.188 277.416C272.837 279.756 271.127 281.783 269.161 283.459L268.56 282.684L267.774 283.297C267.275 283.686 266.761 284.053 266.234 284.396L265.398 284.94L265.931 285.764C263.664 287.105 261.181 288.052 258.597 288.561L258.447 287.591L257.461 287.742C256.839 287.837 256.211 287.906 255.581 287.948L254.585 288.013L254.653 288.992C252.071 289.051 249.445 288.677 246.881 287.83L247.222 286.913L246.287 286.559C245.992 286.448 245.698 286.33 245.406 286.205C245.097 286.073 244.794 285.936 244.495 285.792L243.593 285.36L243.175 286.245C240.624 284.885 238.416 283.104 236.599 281.028L237.358 280.414L236.731 279.632C236.313 279.111 235.919 278.571 235.55 278.017L234.995 277.182L234.184 277.725C232.722 275.31 231.703 272.646 231.179 269.871L232.145 269.733L232.001 268.741C231.905 268.082 231.838 267.418 231.801 266.75L231.746 265.749L230.771 265.8C230.738 263.04 231.192 260.24 232.184 257.524L233.086 257.903L233.468 256.979C233.595 256.672 233.729 256.367 233.871 256.063L234.285 255.176L234.707 254.27L233.803 253.842L237.095 246.784L237.998 247.212L238.421 246.306L239.248 244.532L239.671 243.625L238.767 243.198L242.058 236.14L242.962 236.568L243.385 235.661L244.212 233.887L244.634 232.981L243.731 232.553L247.022 225.495L247.926 225.923L248.348 225.017L249.175 223.243L249.598 222.337L248.694 221.909L251.985 214.851L252.889 215.279L253.312 214.372L254.139 212.598L254.562 211.692L253.658 211.264L256.949 204.207L257.853 204.634L258.275 203.728L259.103 201.954L259.525 201.048L258.621 200.62L261.912 193.562L262.816 193.99L263.239 193.084L264.066 191.31L264.489 190.403L263.585 189.975L266.876 182.918L267.78 183.345L268.203 182.439L269.03 180.665L269.452 179.759L268.549 179.331L271.84 172.273L272.743 172.701L273.166 171.795L273.993 170.021L274.416 169.114L273.512 168.687L276.803 161.629L277.707 162.057L278.13 161.15L278.957 159.376L279.38 158.47L278.476 158.042L281.767 150.984L282.671 151.412L283.093 150.506L283.921 148.732L284.343 147.825L283.439 147.398L286.73 140.34L287.634 140.768L288.057 139.861L288.884 138.087L289.307 137.181L288.403 136.753L291.694 129.695L292.598 130.123L293.02 129.217L293.848 127.443L294.27 126.537L293.366 126.109L296.658 119.051L297.561 119.479L297.984 118.572L298.811 116.798L299.234 115.892L298.33 115.464L301.621 108.407L302.525 108.834L302.948 107.928L303.775 106.154L304.197 105.248L303.294 104.82L306.585 97.7621L307.489 98.1899L307.911 97.2836L308.738 95.5095L309.161 94.6032L308.257 94.1754L311.548 87.1177L312.452 87.5455L312.875 86.6392L313.702 84.8651L314.125 83.9588L313.221 83.531L316.512 76.4732L317.416 76.901L317.838 75.9947L318.666 74.2207L319.088 73.3143L318.184 72.8865L321.475 65.8288L322.379 66.2566L322.802 65.3503L323.629 63.5762L324.052 62.6699L323.148 62.2421L326.439 55.1843L327.343 55.6121L327.766 54.7058L328.593 52.9318L329.015 52.0255L328.112 51.5976L331.403 44.5399L332.306 44.9677L332.729 44.0614L333.556 42.2873L333.979 41.381L333.075 40.9532L336.366 33.8954L337.27 34.3233L337.693 33.4169L338.52 31.6429L338.943 30.7366L338.039 30.3088L341.33 23.251L342.234 23.6788L342.656 22.7725L343.07 21.8855C343.21 21.5845 343.356 21.2882 343.508 20.9965L343.969 20.1094L343.102 19.6529C344.522 17.1809 346.334 15.0534 348.421 13.3128L349.014 14.0943L349.807 13.4886C350.331 13.0881 350.872 12.7119 351.426 12.3606L352.269 11.8268L351.746 10.9965C354.151 9.61232 356.785 8.66199 359.52 8.1921L359.647 9.16525L360.637 9.03817C361.288 8.95451 361.944 8.89918 362.603 8.87283L363.6 8.83297L363.557 7.85279Z" stroke="url(#paint4_linear_138_2)" stroke-opacity="0.2" stroke-width="2" stroke-miterlimit="16" stroke-linecap="square" stroke-linejoin="round" stroke-dasharray="2 10"/>
<path d="M363.557 7.85279C366.275 7.85999 369.029 8.34066 371.699 9.33737L371.324 10.2419L372.245 10.6304C372.548 10.7581 372.849 10.893 373.149 11.035C373.45 11.1773 373.746 11.3254 374.037 11.479L374.922 11.9454L375.374 11.0768C377.845 12.5147 379.974 14.3478 381.716 16.4566L380.94 17.0488L381.545 17.8478C381.946 18.377 382.323 18.9224 382.675 19.4821L383.208 20.3309L384.034 19.8092C385.421 22.2365 386.375 24.8932 386.85 27.6485L385.881 27.7712L386.009 28.7655C386.094 29.4212 386.151 30.0816 386.178 30.745L386.22 31.7464L387.195 31.7093C387.193 34.4448 386.717 37.2133 385.726 39.8952L384.825 39.5125L384.439 40.4353C384.312 40.7392 384.178 41.0418 384.036 41.3429L383.62 42.2288L383.195 43.1339L384.098 43.5642L380.788 50.6129L379.885 50.1826L379.46 51.0878L378.628 52.8596L378.203 53.7647L379.106 54.195L375.795 61.2437L374.893 60.8135L374.468 61.7186L373.636 63.4904L373.211 64.3956L374.113 64.8258L370.803 71.8745L369.9 71.4443L369.475 72.3494L368.643 74.1212L368.218 75.0264L369.121 75.4566L365.811 82.5054L364.908 82.0751L364.483 82.9803L363.651 84.7521L363.226 85.6572L364.129 86.0875L360.819 93.1362L359.916 92.7059L359.491 93.6111L358.659 95.3829L358.234 96.288L359.136 96.7183L355.826 103.767L354.924 103.337L354.499 104.242L353.667 106.014L353.241 106.919L354.144 107.349L350.834 114.398L349.931 113.968L349.506 114.873L348.674 116.645L348.249 117.55L349.152 117.98L345.842 125.029L344.939 124.598L344.514 125.504L343.682 127.275L343.257 128.181L344.16 128.611L340.85 135.659L339.947 135.229L339.522 136.134L338.69 137.906L338.265 138.811L339.167 139.242L335.857 146.29L334.955 145.86L334.53 146.765L333.698 148.537L333.272 149.442L334.175 149.872L330.865 156.921L329.962 156.491L329.537 157.396L328.705 159.168L328.28 160.073L329.183 160.503L325.873 167.552L324.97 167.122L324.545 168.027L323.713 169.799L323.288 170.704L324.191 171.134L320.881 178.183L319.978 177.753L319.553 178.658L318.721 180.429L318.296 181.335L319.198 181.765L315.888 188.814L314.986 188.383L314.561 189.289L313.728 191.06L313.303 191.965L314.206 192.396L310.896 199.444L309.993 199.014L309.568 199.919L308.736 201.691L308.311 202.596L309.214 203.027L305.904 210.075L305.001 209.645L304.576 210.55L303.744 212.322L303.319 213.227L304.222 213.657L300.912 220.706L300.009 220.276L299.584 221.181L298.752 222.953L298.327 223.858L299.229 224.288L295.919 231.337L295.017 230.907L294.591 231.812L293.759 233.584L293.334 234.489L294.237 234.919L290.927 241.968L290.024 241.537L289.599 242.443L288.767 244.214L288.342 245.12L289.245 245.55L285.935 252.599L285.032 252.168L284.607 253.073L283.775 254.845L283.35 255.75L284.253 256.181L280.942 263.229L280.04 262.799L279.615 263.704L278.783 265.476L278.358 266.381L279.26 266.811L275.95 273.86L275.047 273.43L274.622 274.335L274.206 275.221C274.071 275.509 273.931 275.793 273.785 276.072L273.322 276.958L274.188 277.416C272.837 279.756 271.127 281.783 269.161 283.459L268.56 282.684L267.774 283.297C267.275 283.686 266.761 284.053 266.234 284.396L265.398 284.94L265.931 285.764C263.664 287.105 261.181 288.052 258.597 288.561L258.447 287.591L257.461 287.742C256.839 287.837 256.211 287.906 255.581 287.948L254.585 288.013L254.653 288.992C252.071 289.051 249.445 288.677 246.881 287.83L247.222 286.913L246.287 286.559C245.992 286.448 245.698 286.33 245.406 286.205C245.097 286.073 244.794 285.936 244.495 285.792L243.593 285.36L243.175 286.245C240.624 284.885 238.416 283.104 236.599 281.028L237.358 280.414L236.731 279.632C236.313 279.111 235.919 278.571 235.55 278.017L234.995 277.182L234.184 277.725C232.722 275.31 231.703 272.646 231.179 269.871L232.145 269.733L232.001 268.741C231.905 268.082 231.838 267.418 231.801 266.75L231.746 265.749L230.771 265.8C230.738 263.04 231.192 260.24 232.184 257.524L233.086 257.903L233.468 256.979C233.595 256.672 233.729 256.367 233.871 256.063L234.285 255.176L234.707 254.27L233.803 253.842L237.095 246.784L237.998 247.212L238.421 246.306L239.248 244.532L239.671 243.625L238.767 243.198L242.058 236.14L242.962 236.568L243.385 235.661L244.212 233.887L244.634 232.981L243.731 232.553L247.022 225.495L247.926 225.923L248.348 225.017L249.175 223.243L249.598 222.337L248.694 221.909L251.985 214.851L252.889 215.279L253.312 214.372L254.139 212.598L254.562 211.692L253.658 211.264L256.949 204.207L257.853 204.634L258.275 203.728L259.103 201.954L259.525 201.048L258.621 200.62L261.912 193.562L262.816 193.99L263.239 193.084L264.066 191.31L264.489 190.403L263.585 189.975L266.876 182.918L267.78 183.345L268.203 182.439L269.03 180.665L269.452 179.759L268.549 179.331L271.84 172.273L272.743 172.701L273.166 171.795L273.993 170.021L274.416 169.114L273.512 168.687L276.803 161.629L277.707 162.057L278.13 161.15L278.957 159.376L279.38 158.47L278.476 158.042L281.767 150.984L282.671 151.412L283.093 150.506L283.921 148.732L284.343 147.825L283.439 147.398L286.73 140.34L287.634 140.768L288.057 139.861L288.884 138.087L289.307 137.181L288.403 136.753L291.694 129.695L292.598 130.123L293.02 129.217L293.848 127.443L294.27 126.537L293.366 126.109L296.658 119.051L297.561 119.479L297.984 118.572L298.811 116.798L299.234 115.892L298.33 115.464L301.621 108.407L302.525 108.834L302.948 107.928L303.775 106.154L304.197 105.248L303.294 104.82L306.585 97.7621L307.489 98.1899L307.911 97.2836L308.738 95.5095L309.161 94.6032L308.257 94.1754L311.548 87.1177L312.452 87.5455L312.875 86.6392L313.702 84.8651L314.125 83.9588L313.221 83.531L316.512 76.4732L317.416 76.901L317.838 75.9947L318.666 74.2207L319.088 73.3143L318.184 72.8865L321.475 65.8288L322.379 66.2566L322.802 65.3503L323.629 63.5762L324.052 62.6699L323.148 62.2421L326.439 55.1843L327.343 55.6121L327.766 54.7058L328.593 52.9318L329.015 52.0255L328.112 51.5976L331.403 44.5399L332.306 44.9677L332.729 44.0614L333.556 42.2873L333.979 41.381L333.075 40.9532L336.366 33.8954L337.27 34.3233L337.693 33.4169L338.52 31.6429L338.943 30.7366L338.039 30.3088L341.33 23.251L342.234 23.6788L342.656 22.7725L343.07 21.8855C343.21 21.5845 343.356 21.2882 343.508 20.9965L343.969 20.1094L343.102 19.6529C344.522 17.1809 346.334 15.0534 348.421 13.3128L349.014 14.0943L349.807 13.4886C350.331 13.0881 350.872 12.7119 351.426 12.3606L352.269 11.8268L351.746 10.9965C354.151 9.61232 356.785 8.66199 359.52 8.1921L359.647 9.16525L360.637 9.03817C361.288 8.95451 361.944 8.89918 362.603 8.87283L363.6 8.83297L363.557 7.85279Z" stroke="white" stroke-opacity="0.05" stroke-width="2" stroke-miterlimit="16" stroke-linecap="square" stroke-linejoin="round" stroke-dasharray="2 10"/>
</g>
<g filter="url(#filter4_d_138_2)">
<path d="M32.4107 83.8453C19.4977 89.8668 13.9404 105.238 20.0176 118.125L93.223 273.361C95.8113 278.85 101.073 282.593 107.108 283.237C111.423 283.698 115.754 282.528 119.252 279.959L124 276.47C135.525 268.002 139.47 252.577 133.426 239.616L66.5901 96.2856C60.587 83.412 45.2844 77.8423 32.4107 83.8453Z" fill="#3B2864"/>
<path d="M32.4107 83.8453C19.4977 89.8668 13.9404 105.238 20.0176 118.125L93.223 273.361C95.8113 278.85 101.073 282.593 107.108 283.237C111.423 283.698 115.754 282.528 119.252 279.959L124 276.47C135.525 268.002 139.47 252.577 133.426 239.616L66.5901 96.2856C60.587 83.412 45.2844 77.8423 32.4107 83.8453Z" fill="url(#paint5_linear_138_2)" fill-opacity="0.2"/>
</g>
<g filter="url(#filter5_d_138_2)">
<path d="M109.428 284.769C118.403 284.967 126.655 279.864 130.488 271.746L201.7 120.937C207.21 109.268 202.179 95.343 190.484 89.8892C178.82 84.4502 164.955 89.5044 159.528 101.174L89.2575 252.27C85.5738 260.191 86.7463 269.544 92.2454 276.332C96.4524 281.524 102.746 284.622 109.428 284.769Z" fill="#50328F"/>
<path d="M109.428 284.769C118.403 284.967 126.655 279.864 130.488 271.746L201.7 120.937C207.21 109.268 202.179 95.343 190.484 89.8892C178.82 84.4502 164.955 89.5044 159.528 101.174L89.2575 252.27C85.5738 260.191 86.7463 269.544 92.2454 276.332C96.4524 281.524 102.746 284.622 109.428 284.769Z" fill="url(#paint6_linear_138_2)" fill-opacity="0.2"/>
</g>
<g filter="url(#filter6_d_138_2)">
<path d="M255.057 286.533C245.856 286.786 237.388 281.574 233.45 273.233L160.501 118.749C154.844 106.768 159.983 92.4145 171.959 86.746C183.903 81.0927 198.113 86.2267 203.685 98.2089L275.671 252.994C279.456 261.132 278.261 270.77 272.625 277.781C268.324 283.133 261.891 286.345 255.057 286.533Z" fill="#684BA6"/>
<path d="M255.057 286.533C245.856 286.786 237.388 281.574 233.45 273.233L160.501 118.749C154.844 106.768 159.983 92.4145 171.959 86.746C183.903 81.0927 198.113 86.2267 203.685 98.2089L275.671 252.994C279.456 261.132 278.261 270.77 272.625 277.781C268.324 283.133 261.891 286.345 255.057 286.533Z" fill="url(#paint7_linear_138_2)" fill-opacity="0.2"/>
</g>
<g filter="url(#filter7_d_138_2)">
<path d="M373.572 10.1287C385.413 15.7334 390.508 29.9149 384.939 41.7731L275.109 275.651C269.793 286.972 256.519 292.034 245.018 287.127C232.845 281.933 227.373 267.633 232.967 255.635L342.166 21.4577C347.692 9.60691 361.753 4.53479 373.572 10.1287Z" fill="#9B80D3"/>
<path d="M373.572 10.1287C385.413 15.7334 390.508 29.9149 384.939 41.7731L275.109 275.651C269.793 286.972 256.519 292.034 245.018 287.127C232.845 281.933 227.373 267.633 232.967 255.635L342.166 21.4577C347.692 9.60691 361.753 4.53479 373.572 10.1287Z" fill="url(#paint8_linear_138_2)" fill-opacity="0.3"/>
<path d="M363.557 7.85279C366.275 7.85999 369.029 8.34066 371.699 9.33737L371.324 10.2419L372.245 10.6304C372.548 10.7581 372.849 10.893 373.149 11.035C373.45 11.1773 373.746 11.3254 374.037 11.479L374.922 11.9454L375.374 11.0768C377.845 12.5147 379.974 14.3478 381.716 16.4566L380.94 17.0488L381.545 17.8478C381.946 18.377 382.323 18.9224 382.675 19.4821L383.208 20.3309L384.034 19.8092C385.421 22.2365 386.375 24.8932 386.85 27.6485L385.881 27.7712L386.009 28.7655C386.094 29.4212 386.151 30.0816 386.178 30.745L386.22 31.7464L387.195 31.7093C387.193 34.4448 386.717 37.2133 385.726 39.8952L384.825 39.5125L384.439 40.4353C384.312 40.7392 384.178 41.0418 384.036 41.3429L383.62 42.2288L383.195 43.1339L384.098 43.5642L380.788 50.6129L379.885 50.1826L379.46 51.0878L378.628 52.8596L378.203 53.7647L379.106 54.195L375.795 61.2437L374.893 60.8135L374.468 61.7186L373.636 63.4904L373.211 64.3956L374.113 64.8258L370.803 71.8745L369.9 71.4443L369.475 72.3494L368.643 74.1212L368.218 75.0264L369.121 75.4566L365.811 82.5054L364.908 82.0751L364.483 82.9803L363.651 84.7521L363.226 85.6572L364.129 86.0875L360.819 93.1362L359.916 92.7059L359.491 93.6111L358.659 95.3829L358.234 96.288L359.136 96.7183L355.826 103.767L354.924 103.337L354.499 104.242L353.667 106.014L353.241 106.919L354.144 107.349L350.834 114.398L349.931 113.968L349.506 114.873L348.674 116.645L348.249 117.55L349.152 117.98L345.842 125.029L344.939 124.598L344.514 125.504L343.682 127.275L343.257 128.181L344.16 128.611L340.85 135.659L339.947 135.229L339.522 136.134L338.69 137.906L338.265 138.811L339.167 139.242L335.857 146.29L334.955 145.86L334.53 146.765L333.698 148.537L333.272 149.442L334.175 149.872L330.865 156.921L329.962 156.491L329.537 157.396L328.705 159.168L328.28 160.073L329.183 160.503L325.873 167.552L324.97 167.122L324.545 168.027L323.713 169.799L323.288 170.704L324.191 171.134L320.881 178.183L319.978 177.753L319.553 178.658L318.721 180.429L318.296 181.335L319.198 181.765L315.888 188.814L314.986 188.383L314.561 189.289L313.728 191.06L313.303 191.965L314.206 192.396L310.896 199.444L309.993 199.014L309.568 199.919L308.736 201.691L308.311 202.596L309.214 203.027L305.904 210.075L305.001 209.645L304.576 210.55L303.744 212.322L303.319 213.227L304.222 213.657L300.912 220.706L300.009 220.276L299.584 221.181L298.752 222.953L298.327 223.858L299.229 224.288L295.919 231.337L295.017 230.907L294.591 231.812L293.759 233.584L293.334 234.489L294.237 234.919L290.927 241.968L290.024 241.537L289.599 242.443L288.767 244.214L288.342 245.12L289.245 245.55L285.935 252.599L285.032 252.168L284.607 253.073L283.775 254.845L283.35 255.75L284.253 256.181L280.942 263.229L280.04 262.799L279.615 263.704L278.783 265.476L278.358 266.381L279.26 266.811L275.95 273.86L275.047 273.43L274.622 274.335L274.206 275.221C274.071 275.509 273.931 275.793 273.785 276.072L273.322 276.958L274.188 277.416C272.837 279.756 271.127 281.783 269.161 283.459L268.56 282.684L267.774 283.297C267.275 283.686 266.761 284.053 266.234 284.396L265.398 284.94L265.931 285.764C263.664 287.105 261.181 288.052 258.597 288.561L258.447 287.591L257.461 287.742C256.839 287.837 256.211 287.906 255.581 287.948L254.585 288.013L254.653 288.992C252.071 289.051 249.445 288.677 246.881 287.83L247.222 286.913L246.287 286.559C245.992 286.448 245.698 286.33 245.406 286.205C245.097 286.073 244.794 285.936 244.495 285.792L243.593 285.36L243.175 286.245C240.624 284.885 238.416 283.104 236.599 281.028L237.358 280.414L236.731 279.632C236.313 279.111 235.919 278.571 235.55 278.017L234.995 277.182L234.184 277.725C232.722 275.31 231.703 272.646 231.179 269.871L232.145 269.733L232.001 268.741C231.905 268.082 231.838 267.418 231.801 266.75L231.746 265.749L230.771 265.8C230.738 263.04 231.192 260.24 232.184 257.524L233.086 257.903L233.468 256.979C233.595 256.672 233.729 256.367 233.871 256.063L234.285 255.176L234.707 254.27L233.803 253.842L237.095 246.784L237.998 247.212L238.421 246.306L239.248 244.532L239.671 243.625L238.767 243.198L242.058 236.14L242.962 236.568L243.385 235.661L244.212 233.887L244.634 232.981L243.731 232.553L247.022 225.495L247.926 225.923L248.348 225.017L249.175 223.243L249.598 222.337L248.694 221.909L251.985 214.851L252.889 215.279L253.312 214.372L254.139 212.598L254.562 211.692L253.658 211.264L256.949 204.207L257.853 204.634L258.275 203.728L259.103 201.954L259.525 201.048L258.621 200.62L261.912 193.562L262.816 193.99L263.239 193.084L264.066 191.31L264.489 190.403L263.585 189.975L266.876 182.918L267.78 183.345L268.203 182.439L269.03 180.665L269.452 179.759L268.549 179.331L271.84 172.273L272.743 172.701L273.166 171.795L273.993 170.021L274.416 169.114L273.512 168.687L276.803 161.629L277.707 162.057L278.13 161.15L278.957 159.376L279.38 158.47L278.476 158.042L281.767 150.984L282.671 151.412L283.093 150.506L283.921 148.732L284.343 147.825L283.439 147.398L286.73 140.34L287.634 140.768L288.057 139.861L288.884 138.087L289.307 137.181L288.403 136.753L291.694 129.695L292.598 130.123L293.02 129.217L293.848 127.443L294.27 126.537L293.366 126.109L296.658 119.051L297.561 119.479L297.984 118.572L298.811 116.798L299.234 115.892L298.33 115.464L301.621 108.407L302.525 108.834L302.948 107.928L303.775 106.154L304.197 105.248L303.294 104.82L306.585 97.7621L307.489 98.1899L307.911 97.2836L308.738 95.5095L309.161 94.6032L308.257 94.1754L311.548 87.1177L312.452 87.5455L312.875 86.6392L313.702 84.8651L314.125 83.9588L313.221 83.531L316.512 76.4732L317.416 76.901L317.838 75.9947L318.666 74.2207L319.088 73.3143L318.184 72.8865L321.475 65.8288L322.379 66.2566L322.802 65.3503L323.629 63.5762L324.052 62.6699L323.148 62.2421L326.439 55.1843L327.343 55.6121L327.766 54.7058L328.593 52.9318L329.015 52.0255L328.112 51.5976L331.403 44.5399L332.306 44.9677L332.729 44.0614L333.556 42.2873L333.979 41.381L333.075 40.9532L336.366 33.8954L337.27 34.3233L337.693 33.4169L338.52 31.6429L338.943 30.7366L338.039 30.3088L341.33 23.251L342.234 23.6788L342.656 22.7725L343.07 21.8855C343.21 21.5845 343.356 21.2882 343.508 20.9965L343.969 20.1094L343.102 19.6529C344.522 17.1809 346.334 15.0534 348.421 13.3128L349.014 14.0943L349.807 13.4886C350.331 13.0881 350.872 12.7119 351.426 12.3606L352.269 11.8268L351.746 10.9965C354.151 9.61232 356.785 8.66199 359.52 8.1921L359.647 9.16525L360.637 9.03817C361.288 8.95451 361.944 8.89918 362.603 8.87283L363.6 8.83297L363.557 7.85279Z" stroke="url(#paint9_linear_138_2)" stroke-opacity="0.2" stroke-width="2" stroke-miterlimit="16" stroke-linecap="square" stroke-linejoin="round" stroke-dasharray="2 10"/>
<path d="M363.557 7.85279C366.275 7.85999 369.029 8.34066 371.699 9.33737L371.324 10.2419L372.245 10.6304C372.548 10.7581 372.849 10.893 373.149 11.035C373.45 11.1773 373.746 11.3254 374.037 11.479L374.922 11.9454L375.374 11.0768C377.845 12.5147 379.974 14.3478 381.716 16.4566L380.94 17.0488L381.545 17.8478C381.946 18.377 382.323 18.9224 382.675 19.4821L383.208 20.3309L384.034 19.8092C385.421 22.2365 386.375 24.8932 386.85 27.6485L385.881 27.7712L386.009 28.7655C386.094 29.4212 386.151 30.0816 386.178 30.745L386.22 31.7464L387.195 31.7093C387.193 34.4448 386.717 37.2133 385.726 39.8952L384.825 39.5125L384.439 40.4353C384.312 40.7392 384.178 41.0418 384.036 41.3429L383.62 42.2288L383.195 43.1339L384.098 43.5642L380.788 50.6129L379.885 50.1826L379.46 51.0878L378.628 52.8596L378.203 53.7647L379.106 54.195L375.795 61.2437L374.893 60.8135L374.468 61.7186L373.636 63.4904L373.211 64.3956L374.113 64.8258L370.803 71.8745L369.9 71.4443L369.475 72.3494L368.643 74.1212L368.218 75.0264L369.121 75.4566L365.811 82.5054L364.908 82.0751L364.483 82.9803L363.651 84.7521L363.226 85.6572L364.129 86.0875L360.819 93.1362L359.916 92.7059L359.491 93.6111L358.659 95.3829L358.234 96.288L359.136 96.7183L355.826 103.767L354.924 103.337L354.499 104.242L353.667 106.014L353.241 106.919L354.144 107.349L350.834 114.398L349.931 113.968L349.506 114.873L348.674 116.645L348.249 117.55L349.152 117.98L345.842 125.029L344.939 124.598L344.514 125.504L343.682 127.275L343.257 128.181L344.16 128.611L340.85 135.659L339.947 135.229L339.522 136.134L338.69 137.906L338.265 138.811L339.167 139.242L335.857 146.29L334.955 145.86L334.53 146.765L333.698 148.537L333.272 149.442L334.175 149.872L330.865 156.921L329.962 156.491L329.537 157.396L328.705 159.168L328.28 160.073L329.183 160.503L325.873 167.552L324.97 167.122L324.545 168.027L323.713 169.799L323.288 170.704L324.191 171.134L320.881 178.183L319.978 177.753L319.553 178.658L318.721 180.429L318.296 181.335L319.198 181.765L315.888 188.814L314.986 188.383L314.561 189.289L313.728 191.06L313.303 191.965L314.206 192.396L310.896 199.444L309.993 199.014L309.568 199.919L308.736 201.691L308.311 202.596L309.214 203.027L305.904 210.075L305.001 209.645L304.576 210.55L303.744 212.322L303.319 213.227L304.222 213.657L300.912 220.706L300.009 220.276L299.584 221.181L298.752 222.953L298.327 223.858L299.229 224.288L295.919 231.337L295.017 230.907L294.591 231.812L293.759 233.584L293.334 234.489L294.237 234.919L290.927 241.968L290.024 241.537L289.599 242.443L288.767 244.214L288.342 245.12L289.245 245.55L285.935 252.599L285.032 252.168L284.607 253.073L283.775 254.845L283.35 255.75L284.253 256.181L280.942 263.229L280.04 262.799L279.615 263.704L278.783 265.476L278.358 266.381L279.26 266.811L275.95 273.86L275.047 273.43L274.622 274.335L274.206 275.221C274.071 275.509 273.931 275.793 273.785 276.072L273.322 276.958L274.188 277.416C272.837 279.756 271.127 281.783 269.161 283.459L268.56 282.684L267.774 283.297C267.275 283.686 266.761 284.053 266.234 284.396L265.398 284.94L265.931 285.764C263.664 287.105 261.181 288.052 258.597 288.561L258.447 287.591L257.461 287.742C256.839 287.837 256.211 287.906 255.581 287.948L254.585 288.013L254.653 288.992C252.071 289.051 249.445 288.677 246.881 287.83L247.222 286.913L246.287 286.559C245.992 286.448 245.698 286.33 245.406 286.205C245.097 286.073 244.794 285.936 244.495 285.792L243.593 285.36L243.175 286.245C240.624 284.885 238.416 283.104 236.599 281.028L237.358 280.414L236.731 279.632C236.313 279.111 235.919 278.571 235.55 278.017L234.995 277.182L234.184 277.725C232.722 275.31 231.703 272.646 231.179 269.871L232.145 269.733L232.001 268.741C231.905 268.082 231.838 267.418 231.801 266.75L231.746 265.749L230.771 265.8C230.738 263.04 231.192 260.24 232.184 257.524L233.086 257.903L233.468 256.979C233.595 256.672 233.729 256.367 233.871 256.063L234.285 255.176L234.707 254.27L233.803 253.842L237.095 246.784L237.998 247.212L238.421 246.306L239.248 244.532L239.671 243.625L238.767 243.198L242.058 236.14L242.962 236.568L243.385 235.661L244.212 233.887L244.634 232.981L243.731 232.553L247.022 225.495L247.926 225.923L248.348 225.017L249.175 223.243L249.598 222.337L248.694 221.909L251.985 214.851L252.889 215.279L253.312 214.372L254.139 212.598L254.562 211.692L253.658 211.264L256.949 204.207L257.853 204.634L258.275 203.728L259.103 201.954L259.525 201.048L258.621 200.62L261.912 193.562L262.816 193.99L263.239 193.084L264.066 191.31L264.489 190.403L263.585 189.975L266.876 182.918L267.78 183.345L268.203 182.439L269.03 180.665L269.452 179.759L268.549 179.331L271.84 172.273L272.743 172.701L273.166 171.795L273.993 170.021L274.416 169.114L273.512 168.687L276.803 161.629L277.707 162.057L278.13 161.15L278.957 159.376L279.38 158.47L278.476 158.042L281.767 150.984L282.671 151.412L283.093 150.506L283.921 148.732L284.343 147.825L283.439 147.398L286.73 140.34L287.634 140.768L288.057 139.861L288.884 138.087L289.307 137.181L288.403 136.753L291.694 129.695L292.598 130.123L293.02 129.217L293.848 127.443L294.27 126.537L293.366 126.109L296.658 119.051L297.561 119.479L297.984 118.572L298.811 116.798L299.234 115.892L298.33 115.464L301.621 108.407L302.525 108.834L302.948 107.928L303.775 106.154L304.197 105.248L303.294 104.82L306.585 97.7621L307.489 98.1899L307.911 97.2836L308.738 95.5095L309.161 94.6032L308.257 94.1754L311.548 87.1177L312.452 87.5455L312.875 86.6392L313.702 84.8651L314.125 83.9588L313.221 83.531L316.512 76.4732L317.416 76.901L317.838 75.9947L318.666 74.2207L319.088 73.3143L318.184 72.8865L321.475 65.8288L322.379 66.2566L322.802 65.3503L323.629 63.5762L324.052 62.6699L323.148 62.2421L326.439 55.1843L327.343 55.6121L327.766 54.7058L328.593 52.9318L329.015 52.0255L328.112 51.5976L331.403 44.5399L332.306 44.9677L332.729 44.0614L333.556 42.2873L333.979 41.381L333.075 40.9532L336.366 33.8954L337.27 34.3233L337.693 33.4169L338.52 31.6429L338.943 30.7366L338.039 30.3088L341.33 23.251L342.234 23.6788L342.656 22.7725L343.07 21.8855C343.21 21.5845 343.356 21.2882 343.508 20.9965L343.969 20.1094L343.102 19.6529C344.522 17.1809 346.334 15.0534 348.421 13.3128L349.014 14.0943L349.807 13.4886C350.331 13.0881 350.872 12.7119 351.426 12.3606L352.269 11.8268L351.746 10.9965C354.151 9.61232 356.785 8.66199 359.52 8.1921L359.647 9.16525L360.637 9.03817C361.288 8.95451 361.944 8.89918 362.603 8.87283L363.6 8.83297L363.557 7.85279Z" stroke="white" stroke-opacity="0.05" stroke-width="2" stroke-miterlimit="16" stroke-linecap="square" stroke-linejoin="round" stroke-dasharray="2 10"/>
</g>
<path d="M125.543 319.8L110.183 387H106.823C103.623 387 101.063 386.616 99.1426 385.848C97.2226 385.08 95.6226 383.768 94.3426 381.912C93.1266 380.056 91.9426 377.4 90.7906 373.944L84.1666 353.784L77.7346 373.944C76.6466 377.336 75.4306 379.96 74.0866 381.816C72.8066 383.672 71.1746 385.016 69.1906 385.848C67.2706 386.616 64.7426 387 61.6066 387H58.2466L42.8866 319.8H53.5426L66.3106 376.44C67.2066 375.672 68.0386 374.2 68.8066 372.024L84.1666 327.672L99.7186 372.024C100.359 374.136 101.159 375.608 102.119 376.44L114.887 319.8H125.543ZM149.871 387.768C144.026 387.768 139.546 386.381 136.431 383.608C133.316 380.835 131.759 376.781 131.759 371.448V357.752C131.759 352.419 133.316 348.365 136.431 345.592C139.546 342.819 144.026 341.432 149.871 341.432C155.716 341.432 160.175 342.819 163.247 345.592C166.362 348.365 167.919 352.419 167.919 357.752V371.448C167.919 376.781 166.362 380.835 163.247 383.608C160.175 386.381 155.716 387.768 149.871 387.768ZM149.871 381.816C153.242 381.816 155.823 380.941 157.615 379.192C159.45 377.4 160.367 374.819 160.367 371.448V357.752C160.367 354.381 159.45 351.821 157.615 350.072C155.823 348.28 153.242 347.384 149.871 347.384C146.458 347.384 143.834 348.28 141.999 350.072C140.207 351.821 139.311 354.381 139.311 357.752V371.448C139.311 374.819 140.207 377.4 141.999 379.192C143.834 380.941 146.458 381.816 149.871 381.816ZM212.697 387H204.697L201.689 376.568C201.092 374.477 200.473 372.856 199.833 371.704C199.193 370.509 198.297 369.613 197.145 369.016C196.036 368.419 194.521 368.12 192.601 368.12H184.793V387H177.241V342.2H195.737C200.772 342.2 204.527 343.267 207.001 345.4C209.476 347.533 210.713 350.755 210.713 355.064C210.713 358.093 209.945 360.525 208.409 362.36C206.873 364.195 204.719 365.347 201.945 365.816C204.036 366.541 205.636 367.779 206.745 369.528C207.855 371.277 208.836 373.624 209.689 376.568L212.697 387ZM195.737 362.168C197.956 362.168 199.748 361.571 201.113 360.376C202.479 359.181 203.161 357.453 203.161 355.192C203.161 352.888 202.479 351.139 201.113 349.944C199.748 348.749 197.956 348.152 195.737 348.152H184.793V362.168H195.737ZM240.907 359.8C242.913 360.227 244.555 360.909 245.835 361.848C247.115 362.787 248.203 364.067 249.099 365.688C250.038 367.309 250.977 369.464 251.915 372.152L256.843 387H249.227L244.491 372.856C243.894 371.064 243.297 369.677 242.699 368.696C242.102 367.715 241.291 366.925 240.267 366.328C239.243 365.731 237.814 365.325 235.979 365.112L228.043 373.752V387H220.491V342.2H228.043V364.408L248.139 342.2H257.163L240.907 359.8ZM302.244 387C296.953 387 293.113 385.848 290.724 383.544C288.377 381.197 287.204 377.763 287.204 373.24V342.2H294.756V373.24C294.756 375.928 295.353 377.912 296.548 379.192C297.785 380.429 299.684 381.048 302.244 381.048H316.58V387H302.244ZM322.715 367.928L307.739 342.2H316.187L326.683 361.016L336.923 342.2H345.435L330.267 367.928V387H322.715V367.928Z" fill="white"/>
<path d="M125.543 319.8L110.183 387H106.823C103.623 387 101.063 386.616 99.1426 385.848C97.2226 385.08 95.6226 383.768 94.3426 381.912C93.1266 380.056 91.9426 377.4 90.7906 373.944L84.1666 353.784L77.7346 373.944C76.6466 377.336 75.4306 379.96 74.0866 381.816C72.8066 383.672 71.1746 385.016 69.1906 385.848C67.2706 386.616 64.7426 387 61.6066 387H58.2466L42.8866 319.8H53.5426L66.3106 376.44C67.2066 375.672 68.0386 374.2 68.8066 372.024L84.1666 327.672L99.7186 372.024C100.359 374.136 101.159 375.608 102.119 376.44L114.887 319.8H125.543ZM149.871 387.768C144.026 387.768 139.546 386.381 136.431 383.608C133.316 380.835 131.759 376.781 131.759 371.448V357.752C131.759 352.419 133.316 348.365 136.431 345.592C139.546 342.819 144.026 341.432 149.871 341.432C155.716 341.432 160.175 342.819 163.247 345.592C166.362 348.365 167.919 352.419 167.919 357.752V371.448C167.919 376.781 166.362 380.835 163.247 383.608C160.175 386.381 155.716 387.768 149.871 387.768ZM149.871 381.816C153.242 381.816 155.823 380.941 157.615 379.192C159.45 377.4 160.367 374.819 160.367 371.448V357.752C160.367 354.381 159.45 351.821 157.615 350.072C155.823 348.28 153.242 347.384 149.871 347.384C146.458 347.384 143.834 348.28 141.999 350.072C140.207 351.821 139.311 354.381 139.311 357.752V371.448C139.311 374.819 140.207 377.4 141.999 379.192C143.834 380.941 146.458 381.816 149.871 381.816ZM212.697 387H204.697L201.689 376.568C201.092 374.477 200.473 372.856 199.833 371.704C199.193 370.509 198.297 369.613 197.145 369.016C196.036 368.419 194.521 368.12 192.601 368.12H184.793V387H177.241V342.2H195.737C200.772 342.2 204.527 343.267 207.001 345.4C209.476 347.533 210.713 350.755 210.713 355.064C210.713 358.093 209.945 360.525 208.409 362.36C206.873 364.195 204.719 365.347 201.945 365.816C204.036 366.541 205.636 367.779 206.745 369.528C207.855 371.277 208.836 373.624 209.689 376.568L212.697 387ZM195.737 362.168C197.956 362.168 199.748 361.571 201.113 360.376C202.479 359.181 203.161 357.453 203.161 355.192C203.161 352.888 202.479 351.139 201.113 349.944C199.748 348.749 197.956 348.152 195.737 348.152H184.793V362.168H195.737ZM240.907 359.8C242.913 360.227 244.555 360.909 245.835 361.848C247.115 362.787 248.203 364.067 249.099 365.688C250.038 367.309 250.977 369.464 251.915 372.152L256.843 387H249.227L244.491 372.856C243.894 371.064 243.297 369.677 242.699 368.696C242.102 367.715 241.291 366.925 240.267 366.328C239.243 365.731 237.814 365.325 235.979 365.112L228.043 373.752V387H220.491V342.2H228.043V364.408L248.139 342.2H257.163L240.907 359.8ZM302.244 387C296.953 387 293.113 385.848 290.724 383.544C288.377 381.197 287.204 377.763 287.204 373.24V342.2H294.756V373.24C294.756 375.928 295.353 377.912 296.548 379.192C297.785 380.429 299.684 381.048 302.244 381.048H316.58V387H302.244ZM322.715 367.928L307.739 342.2H316.187L326.683 361.016L336.923 342.2H345.435L330.267 367.928V387H322.715V367.928Z" fill="url(#paint10_linear_138_2)" fill-opacity="0.05"/>
<path d="M271.085 388.152C269.229 388.152 267.629 387.512 266.285 386.232C265.005 384.952 264.365 383.416 264.365 381.624C264.365 379.768 265.005 378.2 266.285 376.92C267.629 375.576 269.229 374.904 271.085 374.904C272.877 374.904 274.413 375.576 275.693 376.92C276.973 378.2 277.613 379.768 277.613 381.624C277.613 383.416 276.973 384.952 275.693 386.232C274.413 387.512 272.877 388.152 271.085 388.152Z" fill="#9B80D3"/>
<path d="M271.085 388.152C269.229 388.152 267.629 387.512 266.285 386.232C265.005 384.952 264.365 383.416 264.365 381.624C264.365 379.768 265.005 378.2 266.285 376.92C267.629 375.576 269.229 374.904 271.085 374.904C272.877 374.904 274.413 375.576 275.693 376.92C276.973 378.2 277.613 379.768 277.613 381.624C277.613 383.416 276.973 384.952 275.693 386.232C274.413 387.512 272.877 388.152 271.085 388.152Z" fill="url(#paint11_linear_138_2)" fill-opacity="0.05"/>
<defs>
<filter id="filter0_d_138_2" x="13.5545" y="81.4295" width="126.685" height="209.906" filterUnits="userSpaceOnUse" color-interpolation-filters="sRGB">
<feFlood flood-opacity="0" result="BackgroundImageFix"/>
<feColorMatrix in="SourceAlpha" type="matrix" values="0 0 0 0 0 0 0 0 0 0 0 0 0 0 0 0 0 0 127 0" result="hardAlpha"/>
<feOffset dy="4"/>
<feGaussianBlur stdDeviation="2"/>
<feComposite in2="hardAlpha" operator="out"/>
<feColorMatrix type="matrix" values="0 0 0 0 0 0 0 0 0 0 0 0 0 0 0 0 0 0 0.25 0"/>
<feBlend mode="normal" in2="BackgroundImageFix" result="effect1_dropShadow_138_2"/>
<feBlend mode="normal" in="SourceGraphic" in2="effect1_dropShadow_138_2" result="shape"/>
</filter>
<filter id="filter1_d_138_2" x="83.132" y="87.7019" width="124.803" height="205.073" filterUnits="userSpaceOnUse" color-interpolation-filters="sRGB">
<feFlood flood-opacity="0" result="BackgroundImageFix"/>
<feColorMatrix in="SourceAlpha" type="matrix" values="0 0 0 0 0 0 0 0 0 0 0 0 0 0 0 0 0 0 127 0" result="hardAlpha"/>
<feOffset dy="4"/>
<feGaussianBlur stdDeviation="2"/>
<feComposite in2="hardAlpha" operator="out"/>
<feColorMatrix type="matrix" values="0 0 0 0 0 0 0 0 0 0 0 0 0 0 0 0 0 0 0.25 0"/>
<feBlend mode="normal" in2="BackgroundImageFix" result="effect1_dropShadow_138_2"/>
<feBlend mode="normal" in="SourceGraphic" in2="effect1_dropShadow_138_2" result="shape"/>
</filter>
<filter id="filter2_d_138_2" x="154.201" y="84.4474" width="127.658" height="210.094" filterUnits="userSpaceOnUse" color-interpolation-filters="sRGB">
<feFlood flood-opacity="0" result="BackgroundImageFix"/>
<feColorMatrix in="SourceAlpha" type="matrix" values="0 0 0 0 0 0 0 0 0 0 0 0 0 0 0 0 0 0 127 0" result="hardAlpha"/>
<feOffset dy="4"/>
<feGaussianBlur stdDeviation="2"/>
<feComposite in2="hardAlpha" operator="out"/>
<feColorMatrix type="matrix" values="0 0 0 0 0 0 0 0 0 0 0 0 0 0 0 0 0 0 0.25 0"/>
<feBlend mode="normal" in2="BackgroundImageFix" result="effect1_dropShadow_138_2"/>
<feBlend mode="normal" in="SourceGraphic" in2="effect1_dropShadow_138_2" result="shape"/>
</filter>
<filter id="filter3_d_138_2" x="226.77" y="7.85271" width="164.426" height="289.145" filterUnits="userSpaceOnUse" color-interpolation-filters="sRGB">
<feFlood flood-opacity="0" result="BackgroundImageFix"/>
<feColorMatrix in="SourceAlpha" type="matrix" values="0 0 0 0 0 0 0 0 0 0 0 0 0 0 0 0 0 0 127 0" result="hardAlpha"/>
<feOffset dy="4"/>
<feGaussianBlur stdDeviation="2"/>
<feComposite in2="hardAlpha" operator="out"/>
<feColorMatrix type="matrix" values="0 0 0 0 0 0 0 0 0 0 0 0 0 0 0 0 0 0 0.25 0"/>
<feBlend mode="normal" in2="BackgroundImageFix" result="effect1_dropShadow_138_2"/>
<feBlend mode="normal" in="SourceGraphic" in2="effect1_dropShadow_138_2" result="shape"/>
</filter>
<filter id="filter4_d_138_2" x="13.5545" y="81.4295" width="126.685" height="209.906" filterUnits="userSpaceOnUse" color-interpolation-filters="sRGB">
<feFlood flood-opacity="0" result="BackgroundImageFix"/>
<feColorMatrix in="SourceAlpha" type="matrix" values="0 0 0 0 0 0 0 0 0 0 0 0 0 0 0 0 0 0 127 0" result="hardAlpha"/>
<feOffset dy="4"/>
<feGaussianBlur stdDeviation="2"/>
<feComposite in2="hardAlpha" operator="out"/>
<feColorMatrix type="matrix" values="0 0 0 0 0 0 0 0 0 0 0 0 0 0 0 0 0 0 0.25 0"/>
<feBlend mode="normal" in2="BackgroundImageFix" result="effect1_dropShadow_138_2"/>
<feBlend mode="normal" in="SourceGraphic" in2="effect1_dropShadow_138_2" result="shape"/>
</filter>
<filter id="filter5_d_138_2" x="83.132" y="87.7019" width="124.803" height="205.073" filterUnits="userSpaceOnUse" color-interpolation-filters="sRGB">
<feFlood flood-opacity="0" result="BackgroundImageFix"/>
<feColorMatrix in="SourceAlpha" type="matrix" values="0 0 0 0 0 0 0 0 0 0 0 0 0 0 0 0 0 0 127 0" result="hardAlpha"/>
<feOffset dy="4"/>
<feGaussianBlur stdDeviation="2"/>
<feComposite in2="hardAlpha" operator="out"/>
<feColorMatrix type="matrix" values="0 0 0 0 0 0 0 0 0 0 0 0 0 0 0 0 0 0 0.25 0"/>
<feBlend mode="normal" in2="BackgroundImageFix" result="effect1_dropShadow_138_2"/>
<feBlend mode="normal" in="SourceGraphic" in2="effect1_dropShadow_138_2" result="shape"/>
</filter>
<filter id="filter6_d_138_2" x="154.201" y="84.4474" width="127.658" height="210.094" filterUnits="userSpaceOnUse" color-interpolation-filters="sRGB">
<feFlood flood-opacity="0" result="BackgroundImageFix"/>
<feColorMatrix in="SourceAlpha" type="matrix" values="0 0 0 0 0 0 0 0 0 0 0 0 0 0 0 0 0 0 127 0" result="hardAlpha"/>
<feOffset dy="4"/>
<feGaussianBlur stdDeviation="2"/>
<feComposite in2="hardAlpha" operator="out"/>
<feColorMatrix type="matrix" values="0 0 0 0 0 0 0 0 0 0 0 0 0 0 0 0 0 0 0.25 0"/>
<feBlend mode="normal" in2="BackgroundImageFix" result="effect1_dropShadow_138_2"/>
<feBlend mode="normal" in="SourceGraphic" in2="effect1_dropShadow_138_2" result="shape"/>
</filter>
<filter id="filter7_d_138_2" x="226.77" y="7.85271" width="164.426" height="289.145" filterUnits="userSpaceOnUse" color-interpolation-filters="sRGB">
<feFlood flood-opacity="0" result="BackgroundImageFix"/>
<feColorMatrix in="SourceAlpha" type="matrix" values="0 0 0 0 0 0 0 0 0 0 0 0 0 0 0 0 0 0 127 0" result="hardAlpha"/>
<feOffset dy="4"/>
<feGaussianBlur stdDeviation="2"/>
<feComposite in2="hardAlpha" operator="out"/>
<feColorMatrix type="matrix" values="0 0 0 0 0 0 0 0 0 0 0 0 0 0 0 0 0 0 0.25 0"/>
<feBlend mode="normal" in2="BackgroundImageFix" result="effect1_dropShadow_138_2"/>
<feBlend mode="normal" in="SourceGraphic" in2="effect1_dropShadow_138_2" result="shape"/>
</filter>
<linearGradient id="paint0_linear_138_2" x1="54.5925" y1="192.535" x2="101.313" y2="170.749" gradientUnits="userSpaceOnUse">
<stop/>
<stop offset="1" stop-opacity="0"/>
</linearGradient>
<linearGradient id="paint1_linear_138_2" x1="166.234" y1="197.26" x2="123.901" y2="177.52" gradientUnits="userSpaceOnUse">
<stop/>
<stop offset="1" stop-opacity="0"/>
</linearGradient>
<linearGradient id="paint2_linear_138_2" x1="196.831" y1="196.934" x2="240.297" y2="176.665" gradientUnits="userSpaceOnUse">
<stop/>
<stop offset="1" stop-opacity="0"/>
</linearGradient>
<linearGradient id="paint3_linear_138_2" x1="335.593" y1="132.049" x2="309.142" y2="117.114" gradientUnits="userSpaceOnUse">
<stop/>
<stop offset="1" stop-opacity="0"/>
</linearGradient>
<linearGradient id="paint4_linear_138_2" x1="330.303" y1="159.091" x2="287.33" y2="139.053" gradientUnits="userSpaceOnUse">
<stop stop-color="white" stop-opacity="0"/>
<stop offset="1" stop-opacity="0.38"/>
</linearGradient>
<linearGradient id="paint5_linear_138_2" x1="54.5925" y1="192.535" x2="101.313" y2="170.749" gradientUnits="userSpaceOnUse">
<stop/>
<stop offset="1" stop-opacity="0"/>
</linearGradient>
<linearGradient id="paint6_linear_138_2" x1="166.234" y1="197.26" x2="123.901" y2="177.52" gradientUnits="userSpaceOnUse">
<stop/>
<stop offset="1" stop-opacity="0"/>
</linearGradient>
<linearGradient id="paint7_linear_138_2" x1="196.831" y1="196.934" x2="240.297" y2="176.665" gradientUnits="userSpaceOnUse">
<stop/>
<stop offset="1" stop-opacity="0"/>
</linearGradient>
<linearGradient id="paint8_linear_138_2" x1="335.593" y1="132.049" x2="309.142" y2="117.114" gradientUnits="userSpaceOnUse">
<stop/>
<stop offset="1" stop-opacity="0"/>
</linearGradient>
<linearGradient id="paint9_linear_138_2" x1="330.303" y1="159.091" x2="287.33" y2="139.053" gradientUnits="userSpaceOnUse">
<stop stop-color="white" stop-opacity="0"/>
<stop offset="1" stop-opacity="0.38"/>
</linearGradient>
<linearGradient id="paint10_linear_138_2" x1="193" y1="307" x2="193" y2="391" gradientUnits="userSpaceOnUse">
<stop stop-opacity="0"/>
<stop offset="0.363854"/>
</linearGradient>
<linearGradient id="paint11_linear_138_2" x1="193" y1="307" x2="193" y2="391" gradientUnits="userSpaceOnUse">
<stop stop-opacity="0"/>
<stop offset="0.363854"/>
</linearGradient>
</defs>
</svg>
