<svg width="1291" height="1072" viewBox="0 0 1291 1072" fill="none" xmlns="http://www.w3.org/2000/svg">
<path d="M0 1071.94V-0.000427246H1290.5L773.5 1071.94H0Z" fill="#37255D"/>
<path d="M1112.41 301.683C1109.42 300.252 1108.16 296.669 1109.59 293.68L1137.66 235.057C1139.09 232.068 1142.68 230.805 1145.66 232.236L1165.72 241.839C1168.71 243.27 1169.97 246.853 1168.54 249.842L1140.47 308.465C1139.04 311.453 1135.46 312.716 1132.47 311.285L1112.41 301.683Z" fill="#8A72BD" fill-opacity="0.36"/>
<path d="M1159.41 205.688C1156.42 204.257 1155.16 200.674 1156.59 197.685L1184.66 139.062C1186.09 136.073 1189.68 134.811 1192.66 136.242L1212.72 145.844C1215.71 147.275 1216.97 150.858 1215.54 153.847L1187.47 212.47C1186.04 215.459 1182.46 216.721 1179.47 215.29L1159.41 205.688Z" fill="#8A72BD" fill-opacity="0.13"/>
<path d="M1204.41 111.693C1201.42 110.262 1200.16 106.679 1201.59 103.69L1229.66 45.0673C1231.09 42.0786 1234.68 40.8157 1237.66 42.2467L1257.72 51.8494C1260.71 53.2803 1261.97 56.8632 1260.54 59.852L1232.47 118.475C1231.04 121.464 1227.46 122.727 1224.47 121.296L1204.41 111.693Z" fill="#8A72BD" fill-opacity="0.04"/>
<path d="M765.412 1019.64C762.423 1018.21 761.16 1014.63 762.591 1011.64L790.661 953.018C792.092 950.029 795.675 948.766 798.664 950.197L818.721 959.8C821.71 961.231 822.973 964.814 821.542 967.803L793.472 1026.43C792.041 1029.41 788.458 1030.68 785.469 1029.25L765.412 1019.64Z" fill="#8A72BD" fill-opacity="0.04"/>
<path d="M816.162 918.565C813.174 917.134 811.911 913.552 813.342 910.563L841.411 851.94C842.843 848.951 846.426 847.688 849.414 849.119L869.472 858.722C872.461 860.153 873.723 863.736 872.292 866.725L844.223 925.347C842.792 928.336 839.208 929.599 836.22 928.168L816.162 918.565Z" fill="#8A72BD" fill-opacity="0.13"/>
<path d="M1062.41 406.677C1059.42 405.246 1058.16 401.663 1059.59 398.674L1087.66 340.051C1089.09 337.063 1092.68 335.8 1095.66 337.231L1115.72 346.834C1118.71 348.264 1119.97 351.847 1118.54 354.836L1090.47 413.459C1089.04 416.448 1085.46 417.711 1082.47 416.28L1062.41 406.677Z" fill="#8A72BD" fill-opacity="0.67"/>
<path d="M963.412 610.666C960.423 609.235 959.16 605.652 960.591 602.663L988.661 544.04C990.092 541.052 993.675 539.789 996.664 541.22L1016.72 550.822C1019.71 552.253 1020.97 555.836 1019.54 558.825L991.472 617.448C990.041 620.437 986.458 621.7 983.469 620.269L963.412 610.666Z" fill="#8A72BD"/>
<path d="M1014.41 505.672C1011.42 504.241 1010.16 500.658 1011.59 497.669L1039.66 439.046C1041.09 436.057 1044.68 434.794 1047.66 436.225L1067.72 445.828C1070.71 447.259 1071.97 450.842 1070.54 453.831L1042.47 512.454C1041.04 515.442 1037.46 516.705 1034.47 515.274L1014.41 505.672Z" fill="#8A72BD"/>
<path d="M914.412 712.66C911.423 711.229 910.16 707.647 911.591 704.658L939.661 646.035C941.092 643.046 944.675 641.783 947.664 643.214L967.721 652.817C970.71 654.248 971.973 657.831 970.542 660.819L942.472 719.442C941.041 722.431 937.458 723.694 934.469 722.263L914.412 712.66Z" fill="#8A72BD" fill-opacity="0.67"/>
<path d="M867.412 810.655C864.423 809.224 863.16 805.641 864.591 802.652L892.661 744.03C894.092 741.041 897.675 739.778 900.664 741.209L920.721 750.812C923.71 752.243 924.973 755.825 923.542 758.814L895.472 817.437C894.041 820.426 890.458 821.689 887.469 820.258L867.412 810.655Z" fill="#8A72BD" fill-opacity="0.33"/>
</svg>
