<svg width="1291" height="1080" viewBox="0 0 1291 1080" fill="none" xmlns="http://www.w3.org/2000/svg">
<path d="M0 1079.94V0H1290.5L773.5 1079.94H0Z" fill="#282828"/>
<path d="M1109.4 311.326C1106.42 309.887 1105.15 306.294 1106.58 303.301L1134.68 244.175C1136.1 241.182 1139.67 239.922 1142.66 241.362L1162.73 251.044C1165.71 252.483 1166.98 256.077 1165.56 259.07L1137.46 318.196C1136.03 321.189 1132.46 322.448 1129.48 321.008L1109.4 311.326Z" fill="#8A72BD" fill-opacity="0.36"/>
<path d="M1156.4 214.615C1153.42 213.176 1152.15 209.582 1153.58 206.59L1181.68 147.463C1183.1 144.47 1186.67 143.211 1189.66 144.651L1209.73 154.333C1212.71 155.772 1213.98 159.365 1212.56 162.358L1184.46 221.485C1183.03 224.477 1179.46 225.737 1176.48 224.297L1156.4 214.615Z" fill="#8A72BD" fill-opacity="0.13"/>
<path d="M1201.4 119.919C1198.42 118.479 1197.15 114.886 1198.58 111.893L1226.68 52.767C1228.1 49.7742 1231.67 48.515 1234.66 49.9546L1254.73 59.6363C1257.71 61.0759 1258.98 64.6692 1257.56 67.662L1229.46 126.788C1228.03 129.781 1224.46 131.04 1221.48 129.601L1201.4 119.919Z" fill="#8A72BD" fill-opacity="0.04"/>
<path d="M762.404 1034.65C759.42 1033.21 758.153 1029.61 759.576 1026.62L787.677 967.493C789.099 964.5 792.672 963.241 795.656 964.681L815.729 974.362C818.713 975.802 819.98 979.395 818.557 982.388L790.456 1041.51C789.034 1044.51 785.461 1045.77 782.477 1044.33L762.404 1034.65Z" fill="#8A72BD" fill-opacity="0.04"/>
<path d="M813.155 932.813C810.17 931.373 808.904 927.78 810.326 924.787L838.427 865.661C839.85 862.668 843.422 861.409 846.407 862.848L866.479 872.53C869.464 873.97 870.73 877.563 869.308 880.556L841.207 939.682C839.785 942.675 836.212 943.934 833.227 942.494L813.155 932.813Z" fill="#8A72BD" fill-opacity="0.13"/>
<path d="M1059.4 417.104C1056.42 415.665 1055.15 412.071 1056.58 409.079L1084.68 349.952C1086.1 346.959 1089.67 345.7 1092.66 347.14L1112.73 356.822C1115.71 358.261 1116.98 361.854 1115.56 364.847L1087.46 423.974C1086.03 426.966 1082.46 428.226 1079.48 426.786L1059.4 417.104Z" fill="#8A72BD" fill-opacity="0.67"/>
<path d="M960.404 622.616C957.42 621.176 956.153 617.583 957.576 614.59L985.677 555.464C987.099 552.471 990.672 551.212 993.656 552.651L1013.73 562.333C1016.71 563.772 1017.98 567.366 1016.56 570.359L988.457 629.485C987.034 632.478 983.461 633.737 980.477 632.297L960.404 622.616Z" fill="#8A72BD"/>
<path d="M1011.4 516.838C1008.42 515.398 1007.15 511.805 1008.58 508.812L1036.68 449.686C1038.1 446.693 1041.67 445.434 1044.66 446.873L1064.73 456.555C1067.71 457.995 1068.98 461.588 1067.56 464.581L1039.46 523.707C1038.03 526.7 1034.46 527.959 1031.48 526.519L1011.4 516.838Z" fill="#8A72BD"/>
<path d="M911.404 725.371C908.42 723.932 907.153 720.338 908.576 717.345L936.677 658.219C938.099 655.226 941.672 653.967 944.656 655.407L964.729 665.088C967.713 666.528 968.98 670.121 967.557 673.114L939.456 732.24C938.034 735.233 934.461 736.492 931.477 735.053L911.404 725.371Z" fill="#8A72BD" fill-opacity="0.67"/>
<path d="M864.404 824.097C861.42 822.657 860.153 819.064 861.576 816.071L889.677 756.945C891.099 753.952 894.672 752.693 897.656 754.133L917.729 763.814C920.713 765.254 921.98 768.847 920.557 771.84L892.456 830.966C891.034 833.959 887.461 835.218 884.477 833.779L864.404 824.097Z" fill="#8A72BD" fill-opacity="0.33"/>
</svg>
