<svg width="136" height="46" viewBox="0 0 136 46" fill="none" xmlns="http://www.w3.org/2000/svg">
<path d="M55.2055 0.199997L44.9655 45H42.7255C40.5922 45 38.8855 44.744 37.6055 44.232C36.3255 43.72 35.2588 42.8453 34.4055 41.608C33.5948 40.3707 32.8055 38.6 32.0375 36.296L27.6215 22.856L23.3335 36.296C22.6082 38.5573 21.7975 40.3067 20.9015 41.544C20.0482 42.7813 18.9602 43.6773 17.6375 44.232C16.3575 44.744 14.6722 45 12.5815 45H10.3415L0.1015 0.199997H7.2055L15.7175 37.96C16.3148 37.448 16.8695 36.4667 17.3815 35.016L27.6215 5.448L37.9895 35.016C38.4162 36.424 38.9495 37.4053 39.5895 37.96L48.1015 0.199997H55.2055ZM65.067 45.768C63.8297 45.768 62.763 45.3413 61.867 44.488C61.0137 43.6347 60.587 42.6107 60.587 41.416C60.587 40.1787 61.0137 39.1333 61.867 38.28C62.763 37.384 63.8297 36.936 65.067 36.936C66.2617 36.936 67.2857 37.384 68.139 38.28C68.9923 39.1333 69.419 40.1787 69.419 41.416C69.419 42.6107 68.9923 43.6347 68.139 44.488C67.2857 45.3413 66.2617 45.768 65.067 45.768ZM92.197 45C86.9063 45 83.0663 43.848 80.677 41.544C78.3303 39.1973 77.157 35.7627 77.157 31.24V0.199997H84.709V31.24C84.709 33.928 85.3063 35.912 86.501 37.192C87.7383 38.4293 89.637 39.048 92.197 39.048H106.533V45H92.197ZM112.668 25.928L97.692 0.199997H106.14L116.636 19.016L126.876 0.199997H135.388L120.22 25.928V45H112.668V25.928Z" fill="white"/>
<path d="M55.2055 0.199997L44.9655 45H42.7255C40.5922 45 38.8855 44.744 37.6055 44.232C36.3255 43.72 35.2588 42.8453 34.4055 41.608C33.5948 40.3707 32.8055 38.6 32.0375 36.296L27.6215 22.856L23.3335 36.296C22.6082 38.5573 21.7975 40.3067 20.9015 41.544C20.0482 42.7813 18.9602 43.6773 17.6375 44.232C16.3575 44.744 14.6722 45 12.5815 45H10.3415L0.1015 0.199997H7.2055L15.7175 37.96C16.3148 37.448 16.8695 36.4667 17.3815 35.016L27.6215 5.448L37.9895 35.016C38.4162 36.424 38.9495 37.4053 39.5895 37.96L48.1015 0.199997H55.2055ZM65.067 45.768C63.8297 45.768 62.763 45.3413 61.867 44.488C61.0137 43.6347 60.587 42.6107 60.587 41.416C60.587 40.1787 61.0137 39.1333 61.867 38.28C62.763 37.384 63.8297 36.936 65.067 36.936C66.2617 36.936 67.2857 37.384 68.139 38.28C68.9923 39.1333 69.419 40.1787 69.419 41.416C69.419 42.6107 68.9923 43.6347 68.139 44.488C67.2857 45.3413 66.2617 45.768 65.067 45.768ZM92.197 45C86.9063 45 83.0663 43.848 80.677 41.544C78.3303 39.1973 77.157 35.7627 77.157 31.24V0.199997H84.709V31.24C84.709 33.928 85.3063 35.912 86.501 37.192C87.7383 38.4293 89.637 39.048 92.197 39.048H106.533V45H92.197ZM112.668 25.928L97.692 0.199997H106.14L116.636 19.016L126.876 0.199997H135.388L120.22 25.928V45H112.668V25.928Z" fill="url(#paint0_linear_131_9)" fill-opacity="0.05"/>
<defs>
<linearGradient id="paint0_linear_131_9" x1="67" y1="-22" x2="67" y2="102" gradientUnits="userSpaceOnUse">
<stop stop-opacity="0"/>
<stop offset="0.363854"/>
</linearGradient>
</defs>
</svg>
